<?xml version="1.0" encoding="utf-8"?>

<!DOCTYPE svg PUBLIC "-//W3C//DTD SVG 1.1//EN" "http://www.w3.org/Graphics/SVG/1.1/DTD/svg11.dtd">
<!-- Uploaded to: SVG Repo, www.svgrepo.com, Generator: SVG Repo Mixer Tools -->
<svg version="1.1" id="HOUSE" xmlns="http://www.w3.org/2000/svg" xmlns:xlink="http://www.w3.org/1999/xlink" 
	 width="800px" height="800px" viewBox="0 0 1800 1800" enable-background="new 0 0 1800 1800" xml:space="preserve">
<g>
	<path fill="#333333" d="M1783.877,760.195L1448.221,519.4c0.936-5.06,1.49-10.252,1.49-15.58V88.032
		c0-47.163-38.371-85.533-85.533-85.533h-124.246c-47.162,0-85.533,38.37-85.533,85.533v220.587L918.581,139.452
		c-4.537-3.26-9.654-5.051-14.847-5.618c-1.234-0.156-2.483-0.246-3.732-0.255c-1.249,0.009-2.497,0.099-3.732,0.255
		c-5.188,0.567-10.309,2.358-14.846,5.618l-865.3,620.743c-14.143,10.142-17.383,29.829-7.236,43.971
		c6.155,8.581,15.822,13.149,25.63,13.149c6.361,0,12.78-1.921,18.341-5.913L900.002,203.69l254.396,182.496l63.024,45.211
		l132.331,94.932l64.783,46.473l332.604,238.601c5.562,3.991,11.979,5.913,18.341,5.913c9.809,0,19.476-4.568,25.631-13.149
		C1801.26,790.027,1798.02,770.337,1783.877,760.195z M1217.423,353.834V88.032c0-12.411,10.099-22.509,22.509-22.509h124.246
		c12.41,0,22.509,10.098,22.509,22.509v387.226L1217.423,353.834z"/>
	<path fill="#333333" d="M1534.746,800.935c-17.404,0-31.512,14.107-31.512,31.512v894.17c0,1.895-6.37,7.86-17.418,7.86h-353.228
		v-548.772c0-17.404-14.107-31.512-31.513-31.512H698.928c-17.404,0-31.512,14.107-31.512,31.512v548.772H314.188
		c-11.048,0-17.418-5.966-17.418-7.86v-894.17c0-17.405-14.107-31.512-31.512-31.512c-17.404,0-31.512,14.107-31.512,31.512v894.17
		c0,1.169,0.136,2.303,0.197,3.459c2.071,37.474,37.214,67.426,80.245,67.426h384.74c17.405,0,31.512-14.108,31.512-31.513v-548.771
		h339.125v548.771c0,17.404,14.107,31.513,31.512,31.513h384.74c43.031,0,78.174-29.952,80.244-67.426
		c0.063-1.156,0.198-2.29,0.198-3.459v-894.17C1566.259,815.042,1552.151,800.935,1534.746,800.935z"/>
	<path fill="#333333" d="M1073.253,782.176c0-95.411-77.624-173.04-173.04-173.04s-173.04,77.628-173.04,173.04
		c0,95.416,77.624,173.04,173.04,173.04S1073.253,877.592,1073.253,782.176z M790.198,782.176
		c0-60.663,49.352-110.016,110.016-110.016s110.015,49.353,110.015,110.016c0,60.664-49.352,110.016-110.015,110.016
		S790.198,842.84,790.198,782.176z"/>
</g>
</svg>