<?xml version="1.0" standalone="no"?>
<!DOCTYPE svg PUBLIC "-//W3C//DTD SVG 20010904//EN"
 "http://www.w3.org/TR/2001/REC-SVG-20010904/DTD/svg10.dtd">
<svg version="1.0" xmlns="http://www.w3.org/2000/svg"
 width="1024.000000pt" height="1024.000000pt" viewBox="0 0 1024.000000 1024.000000"
 preserveAspectRatio="xMidYMid meet">

<g transform="translate(0.000000,1024.000000) scale(0.100000,-0.100000)"
fill="#000000" stroke="none">
<path d="M4980 9720 c-318 -19 -613 -99 -899 -245 -223 -113 -378 -224 -560
-400 -434 -421 -677 -966 -698 -1570 -13 -391 62 -745 232 -1092 337 -689 979
-1154 1750 -1269 160 -23 465 -24 626 -1 766 112 1414 578 1750 1262 110 223
174 426 216 680 25 154 25 514 0 675 -117 756 -583 1392 -1268 1732 -346 171
-749 251 -1149 228z"/>
<path d="M4850 4599 c-1373 -38 -2473 -424 -3158 -1109 -324 -324 -540 -704
-633 -1115 -23 -99 -23 -108 -26 -983 l-4 -882 4091 0 4091 0 -3 877 -3 878
-23 105 c-217 970 -1092 1721 -2381 2044 -583 146 -1207 206 -1951 185z"/>
</g>
</svg>
